<?xml version="1.0" encoding="utf-8"?>
<!-- Generator: Adobe Illustrator 21.0.2, SVG Export Plug-In . SVG Version: 6.00 Build 0)  -->
<svg version="1.1" id="Layer_1" xmlns="http://www.w3.org/2000/svg" xmlns:xlink="http://www.w3.org/1999/xlink" x="0px" y="0px"
	 viewBox="0 0 11 11" style="enable-background:new 0 0 11 11;" xml:space="preserve">
<path fill="#6A1700" d="M8.2,3L5.8,0.6c-0.2-0.2-0.5-0.2-0.7,0c0,0,0,0,0,0L2.8,3H1.5C1.2,3,1,3.2,1,3.5v6C1,9.8,1.2,10,1.5,10h8
	C9.8,10,10,9.8,10,9.5v-6C10,3.2,9.8,3,9.5,3H8.2z M5.5,1.7L6.8,3H4.2L5.5,1.7z M9,9H2V4h7V9z M4.5,5.5C4.5,5.8,4.3,6,4,6
	S3.5,5.8,3.5,5.5S3.7,5,4,5S4.5,5.2,4.5,5.5z M8,8H4l0.8-1.5l0.5,1L6.5,5L8,8z"/>
</svg>
