<?xml version="1.0" encoding="utf-8"?>
<!-- Generator: Adobe Illustrator 21.0.2, SVG Export Plug-In . SVG Version: 6.00 Build 0)  -->
<svg version="1.1" id="Layer_1" xmlns="http://www.w3.org/2000/svg" xmlns:xlink="http://www.w3.org/1999/xlink" x="0px" y="0px"
	 viewBox="0 0 11 11" style="enable-background:new 0 0 11 11;" xml:space="preserve">
<path fill="#3573FF" d="M9,4L8.1,1.3C8,1.1,7.9,1,7.6,1H3.4C3.1,1,3,1.1,2.9,1.3L2,4C1.4,4,1,4.4,1,5v3h1v1c0,0.6,0.4,1,1,1s1-0.4,1-1
	V8h3v1c0,0.6,0.4,1,1,1s1-0.4,1-1V8h1V5C10,4.4,9.6,4,9,4z M3,7C2.4,7,2,6.6,2,6s0.4-1,1-1s1,0.4,1,1S3.6,7,3,7z M3,4l0.6-2h3.8L8,4
	H3z M8,7C7.4,7,7,6.6,7,6s0.4-1,1-1s1,0.4,1,1S8.6,7,8,7z"/>
</svg>
