<?xml version="1.0" encoding="utf-8"?>
<!-- Generator: Adobe Illustrator 21.0.2, SVG Export Plug-In . SVG Version: 6.00 Build 0)  -->
<svg version="1.1" id="Layer_1" xmlns="http://www.w3.org/2000/svg" xmlns:xlink="http://www.w3.org/1999/xlink" x="0px" y="0px"
	 viewBox="0 0 15 15" style="enable-background:new 0 0 15 15;" xml:space="preserve">
<path fill="#149152" d="M4.5,6L0,7V6.5l4.5-1V6z M4.5,3.5L0,2.5V3l4.5,1V3.5z M10.5,3.5V4L15,3V2.5L10.5,3.5z M10.5,6L15,7V6.5l-4.5-1
	V6z M8,7V2h2.5c0.3,0.1,0.5-0.1,0.6-0.4C11.2,1.3,11,1.1,10.7,1l-3-1C7.6-0.1,7.4-0.1,7.3,0l-3,1C4,1.1,3.8,1.3,3.9,1.6
	S4.2,2.1,4.5,2H7v5H5l-2,7h9l-2-7H8z"/>
</svg>
