<svg xmlns="http://www.w3.org/2000/svg" viewBox="0 0 21 21" height="21" width="21"><title>roadblock-15.svg</title><rect fill="none" x="0" y="0" width="21" height="21"></rect><path fill="rgba(64,64,64,0.3)" transform="translate(3 3)" d="M7.5,0C3.3579,0,0,3.3579,0,7.5S3.3579,15,7.5,15S15,11.6421,15,7.5S11.6421,0,7.5,0z M3,6h9v3H3V6z" style="stroke-linejoin:round;stroke-miterlimit:4;" stroke="rgba(128,128,128,0.3)" stroke-width="2"></path><path fill="#d843c7" transform="translate(3 3)" d="M7.5,0C3.3579,0,0,3.3579,0,7.5S3.3579,15,7.5,15S15,11.6421,15,7.5S11.6421,0,7.5,0z M3,6h9v3H3V6z"></path></svg>
